<?xml version="1.0" standalone="no"?>
<!DOCTYPE svg PUBLIC "-//W3C//DTD SVG 20010904//EN"
 "http://www.w3.org/TR/2001/REC-SVG-20010904/DTD/svg10.dtd">
<svg version="1.0" xmlns="http://www.w3.org/2000/svg"
 width="200.000000pt" height="200.000000pt" viewBox="0 0 200.000000 200.000000"
 preserveAspectRatio="xMidYMid meet">
<metadata>
Created by potrace 1.14, written by Peter Selinger 2001-2017
</metadata>
<g transform="translate(0.000000,200.000000) scale(0.100000,-0.100000)"
fill="#000000" stroke="none">
<path d="M815 1903 c-317 -65 -569 -327 -621 -645 -8 -48 -13 -297 -7 -315 3
-7 24 -11 54 -10 l49 1 0 135 c0 200 33 318 123 451 125 183 334 291 562 291
50 0 98 -2 105 -5 8 -3 26 -7 40 -10 14 -2 55 -15 92 -29 186 -71 335 -224
399 -411 36 -104 37 -114 38 -282 l1 -141 55 0 54 1 -3 155 c-4 178 -19 255
-71 368 -103 222 -298 384 -532 439 -91 21 -250 25 -338 7z"/>
<path d="M830 1704 c-208 -54 -377 -222 -429 -425 -14 -53 -19 -113 -20 -212
l-2 -138 38 2 c72 3 68 -4 71 141 1 73 3 140 5 148 15 58 23 82 50 135 38 76
134 171 211 208 279 136 605 -13 687 -313 6 -25 13 -103 14 -175 2 -71 3 -132
4 -135 1 -3 24 -6 52 -7 l51 -1 -4 161 c-4 142 -8 170 -30 229 -69 183 -206
316 -385 374 -67 22 -244 26 -313 8z"/>
<path d="M902 1518 c-144 -25 -274 -144 -312 -287 -6 -23 -11 -89 -12 -145 0
-172 -6 -155 52 -153 57 1 52 -12 52 142 0 158 50 255 162 312 70 37 179 38
248 4 59 -29 108 -78 139 -139 20 -41 24 -65 27 -184 l4 -138 51 3 51 3 1 109
c1 125 -14 208 -51 274 -79 146 -249 228 -412 199z"/>
<path d="M906 1316 c-48 -18 -94 -61 -114 -106 -15 -34 -26 -225 -16 -262 4
-14 15 -17 52 -15 l47 2 5 115 c6 128 10 142 46 159 68 31 133 -9 135 -83 0
-22 1 -75 2 -116 l2 -75 30 -2 c76 -5 75 -6 72 130 -3 129 -13 164 -60 208
-54 51 -134 69 -201 45z"/>
<path d="M635 821 c-3 -2 -5 -64 -5 -138 l0 -133 33 0 33 0 2 67 c2 76 19 106
50 87 13 -9 18 -28 20 -83 3 -71 3 -71 31 -71 35 0 38 7 35 95 -3 58 -7 73
-25 88 -26 21 -67 22 -95 2 -20 -14 -21 -13 -18 23 5 53 -2 68 -31 68 -14 0
-28 -2 -30 -5z"/>
<path d="M325 810 c-10 -17 16 -41 39 -38 13 2 22 12 24 26 3 19 -1 22 -27 22
-16 0 -33 -5 -36 -10z"/>
<path d="M69 730 c-2 -38 2 -137 7 -152 10 -32 86 -43 121 -16 7 5 14 5 18 -2
3 -5 17 -10 31 -10 24 0 24 1 24 98 l0 97 -30 1 c-16 1 -31 -3 -32 -10 -2 -20
-6 -70 -7 -103 -1 -20 -8 -36 -19 -42 -33 -17 -47 3 -48 71 -1 35 -2 69 -3 76
-1 19 -61 12 -62 -8z"/>
<path d="M329 741 c-1 -3 -2 -48 -3 -98 l-1 -93 32 0 33 0 0 98 0 97 -30 1
c-16 1 -31 -1 -31 -5z"/>
<path d="M483 740 c-31 -12 -46 -46 -45 -99 2 -72 41 -99 133 -92 9 0 19 10
22 21 4 17 0 19 -29 18 -45 -2 -58 12 -58 62 0 46 16 63 52 57 32 -6 50 28 19
37 -30 8 -68 6 -94 -4z"/>
<path d="M888 736 c-3 -9 -2 -137 1 -173 1 -7 14 -13 31 -13 30 0 30 0 30 56
0 67 13 94 44 94 22 0 42 31 28 44 -10 11 -41 6 -56 -9 -12 -12 -17 -13 -23
-3 -10 16 -51 19 -55 4z"/>
<path d="M1081 723 c-17 -16 -32 -42 -34 -59 -6 -37 15 -89 40 -102 50 -27
120 -16 152 22 17 20 21 85 8 114 -26 56 -118 69 -166 25z m99 -32 c15 -29 12
-77 -6 -95 -32 -32 -75 24 -58 77 12 40 47 49 64 18z"/>
<path d="M1309 748 c-1 -2 -3 -47 -4 -100 l-3 -98 34 0 34 0 0 69 c0 76 16
104 48 84 13 -8 17 -27 18 -79 l1 -69 35 -3 34 -3 -1 58 c-2 75 3 91 27 99 32
10 42 -11 41 -86 l-1 -70 34 0 34 0 0 78 c0 91 -10 110 -63 119 -28 4 -42 1
-58 -13 -15 -14 -22 -15 -28 -6 -13 21 -78 27 -105 9 -21 -14 -25 -14 -30 -2
-4 12 -42 22 -47 13z"/>
<path d="M1718 740 c-30 -19 -11 -36 40 -36 35 1 47 -3 50 -15 2 -13 -8 -17
-49 -22 -28 -4 -57 -12 -65 -18 -18 -14 -18 -60 -1 -83 16 -22 80 -24 104 -4
13 10 17 10 20 1 3 -7 17 -13 32 -13 l27 0 -2 81 c-1 58 -6 85 -17 97 -19 18
-115 27 -139 12z m92 -112 c-1 -31 -40 -54 -58 -36 -17 17 5 48 33 48 14 0 25
-6 25 -12z"/>
</g>
</svg>
